<svg width="81" height="13" viewBox="0 0 81 13" fill="none" xmlns="http://www.w3.org/2000/svg">
<path d="M0.359375 0.84375C0.713542 0.895833 1.02604 0.932292 1.29688 0.953125C1.57812 0.973958 1.8125 0.994792 2 1.01562C2.21875 1.03646 2.40625 1.04688 2.5625 1.04688H3.17188C3.57812 1.04688 4.25 1.03125 5.1875 1C4.95833 1.07292 4.76562 1.17708 4.60938 1.3125C4.46354 1.44792 4.34375 1.58854 4.25 1.73438C4.13542 1.90104 4.05208 2.07292 4 2.25C3.9375 2.46875 3.88021 2.76042 3.82812 3.125C3.77604 3.44792 3.72396 3.86979 3.67188 4.39062C3.63021 4.91146 3.58854 5.5625 3.54688 6.34375C3.99479 5.83333 4.38542 5.38021 4.71875 4.98438C5.0625 4.58854 5.35938 4.23958 5.60938 3.9375C5.85938 3.63542 6.06771 3.375 6.23438 3.15625C6.41146 2.9375 6.55729 2.75 6.67188 2.59375C6.94271 2.23958 7.09896 2 7.14062 1.875C7.15104 1.80208 7.14583 1.71354 7.125 1.60938C7.10417 1.52604 7.07292 1.42708 7.03125 1.3125C6.98958 1.1875 6.92708 1.05208 6.84375 0.90625C7.26042 0.927083 7.61458 0.942708 7.90625 0.953125C8.20833 0.963542 8.45833 0.973958 8.65625 0.984375C8.88542 0.994792 9.07292 1 9.21875 1H9.875C10.1146 1 10.4271 1 10.8125 1C11.1979 0.989583 11.6823 0.979167 12.2656 0.96875C11.8802 1.0625 11.5156 1.1875 11.1719 1.34375C10.8281 1.5 10.5208 1.65104 10.25 1.79688C9.9375 1.97396 9.64583 2.15625 9.375 2.34375C9.10417 2.55208 8.80208 2.79688 8.46875 3.07812C8.1875 3.31771 7.85938 3.61458 7.48438 3.96875C7.10938 4.3125 6.70312 4.71354 6.26562 5.17188C6.73438 6.08854 7.14062 6.84375 7.48438 7.4375C7.83854 8.02083 8.13542 8.48958 8.375 8.84375C8.64583 9.26042 8.875 9.57812 9.0625 9.79688C9.25 9.99479 9.46875 10.1979 9.71875 10.4062C9.92708 10.5833 10.1875 10.7812 10.5 11C10.8125 11.2083 11.1719 11.4115 11.5781 11.6094L7.125 11.8281C7.1875 11.7448 7.22396 11.6458 7.23438 11.5312C7.25521 11.4062 7.26562 11.2917 7.26562 11.1875C7.26562 11.0729 7.25521 10.9479 7.23438 10.8125C7.19271 10.6458 7.08333 10.375 6.90625 10C6.76042 9.67708 6.53646 9.22396 6.23438 8.64062C5.93229 8.04688 5.51562 7.26562 4.98438 6.29688L3.65625 7.6875C3.60417 8.02083 3.57812 8.32292 3.57812 8.59375C3.57812 8.86458 3.58854 9.08854 3.60938 9.26562C3.64062 9.48438 3.68229 9.67188 3.73438 9.82812C3.79688 9.98438 3.88542 10.1615 4 10.3594C4.09375 10.5365 4.21875 10.7448 4.375 10.9844C4.53125 11.224 4.72917 11.4896 4.96875 11.7812C4.72917 11.7188 4.48958 11.6771 4.25 11.6562C4.01042 11.625 3.79167 11.6042 3.59375 11.5938C3.36458 11.5833 3.14583 11.5885 2.9375 11.6094C2.71875 11.6302 2.46354 11.6615 2.17188 11.7031C1.92188 11.7448 1.61458 11.7969 1.25 11.8594C0.885417 11.9219 0.46875 12 0 12.0938C0.229167 11.9583 0.411458 11.8125 0.546875 11.6562C0.682292 11.5 0.791667 11.349 0.875 11.2031C0.96875 11.0365 1.03125 10.875 1.0625 10.7188C1.08333 10.5833 1.09896 10.2917 1.10938 9.84375C1.13021 9.39583 1.14062 8.875 1.14062 8.28125C1.15104 7.67708 1.15104 7.04167 1.14062 6.375C1.13021 5.70833 1.11979 5.08333 1.10938 4.5C1.09896 3.91667 1.08333 3.42188 1.0625 3.01562C1.05208 2.59896 1.04167 2.34375 1.03125 2.25C1 2.10417 0.958333 1.94792 0.90625 1.78125C0.854167 1.63542 0.78125 1.48438 0.6875 1.32812C0.604167 1.16146 0.494792 1 0.359375 0.84375ZM16.9569 1.42188C17.4777 1.45312 17.9152 1.47917 18.2694 1.5C18.634 1.51042 18.936 1.52083 19.1756 1.53125C19.4465 1.54167 19.6756 1.54167 19.8631 1.53125C20.0506 1.52083 20.3058 1.49479 20.6287 1.45312C20.8996 1.42188 21.259 1.375 21.7069 1.3125C22.1652 1.23958 22.7329 1.14583 23.41 1.03125C23.1704 1.27083 22.9829 1.48958 22.8475 1.6875C22.7225 1.875 22.6235 2.03646 22.5506 2.17188C22.4673 2.33854 22.41 2.47917 22.3787 2.59375C22.3579 2.69792 22.3787 2.95833 22.4412 3.375C22.5037 3.79167 22.5923 4.28646 22.7069 4.85938C22.8215 5.42188 22.9465 6.02604 23.0819 6.67188C23.2173 7.30729 23.3527 7.90625 23.4881 8.46875C23.6235 9.02083 23.7433 9.49479 23.8475 9.89062C23.9621 10.276 24.0454 10.5052 24.0975 10.5781C24.2537 10.7969 24.3527 10.9427 24.3944 11.0156C24.436 11.0781 24.509 11.1354 24.6131 11.1875C24.6548 11.2083 24.7225 11.2396 24.8162 11.2812C24.8996 11.3229 25.009 11.375 25.1444 11.4375C25.2902 11.5 25.4725 11.5729 25.6912 11.6562C25.285 11.6771 24.936 11.6927 24.6444 11.7031C24.3527 11.7031 24.1131 11.7083 23.9256 11.7188C23.7069 11.7292 23.5194 11.7396 23.3631 11.75C23.2069 11.75 23.0194 11.7604 22.8006 11.7812C22.6131 11.8021 22.3683 11.8229 22.0662 11.8438C21.7746 11.8646 21.4308 11.8854 21.035 11.9062C21.2433 11.7604 21.41 11.6302 21.535 11.5156C21.6704 11.3906 21.7746 11.2865 21.8475 11.2031C21.9308 11.099 21.9881 11.0052 22.0194 10.9219C22.0402 10.8281 22.0558 10.6875 22.0662 10.5C22.0767 10.3333 22.0767 10.1146 22.0662 9.84375C22.0558 9.5625 22.0298 9.19792 21.9881 8.75L17.8787 9.17188C17.7746 9.34896 17.6965 9.50521 17.6444 9.64062C17.5923 9.76562 17.5558 9.875 17.535 9.96875C17.5037 10.0833 17.4933 10.1771 17.5037 10.25C17.5246 10.3333 17.561 10.4323 17.6131 10.5469C17.6652 10.651 17.7381 10.776 17.8319 10.9219C17.936 11.0573 18.0871 11.2188 18.285 11.4062C18.0246 11.3958 17.759 11.3906 17.4881 11.3906C17.2173 11.3906 16.9673 11.3958 16.7381 11.4062C16.4673 11.4167 16.2017 11.4271 15.9412 11.4375C15.6808 11.4479 15.384 11.4635 15.0506 11.4844C14.7694 11.5052 14.4412 11.5312 14.0662 11.5625C13.6808 11.5833 13.2694 11.6146 12.8319 11.6562C13.1027 11.5312 13.3319 11.4062 13.5194 11.2812C13.7069 11.1458 13.8631 11.0208 13.9881 10.9062C14.134 10.7812 14.259 10.6615 14.3631 10.5469C14.436 10.4427 14.5819 10.2031 14.8006 9.82812C15.0194 9.44271 15.2642 8.98958 15.535 8.46875C15.8162 7.94792 16.1079 7.39062 16.41 6.79688C16.7225 6.20312 17.0037 5.64583 17.2537 5.125C17.5037 4.59375 17.7069 4.13542 17.8631 3.75C18.0194 3.36458 18.0975 3.11458 18.0975 3C18.0767 2.86458 18.0246 2.71354 17.9412 2.54688C17.8683 2.40104 17.7537 2.23438 17.5975 2.04688C17.4517 1.85938 17.2381 1.65104 16.9569 1.42188ZM21.8006 7.59375C21.7381 7.22917 21.6808 6.91667 21.6287 6.65625C21.5767 6.38542 21.535 6.16146 21.5037 5.98438C21.4621 5.77604 21.4308 5.59375 21.41 5.4375C21.3787 5.29167 21.3423 5.10417 21.3006 4.875C21.259 4.67708 21.2069 4.43229 21.1444 4.14062C21.0923 3.83854 21.0246 3.47917 20.9412 3.0625C20.3475 4.25 19.884 5.17188 19.5506 5.82812C19.2277 6.47396 18.9933 6.94792 18.8475 7.25C18.6704 7.60417 18.5715 7.8125 18.5506 7.875L21.8006 7.59375ZM28.4762 0.59375C28.8096 0.645833 29.1117 0.692708 29.3825 0.734375C29.6533 0.765625 29.8877 0.791667 30.0856 0.8125C30.3148 0.84375 30.5179 0.869792 30.695 0.890625C30.9137 0.921875 31.2419 0.885417 31.6794 0.78125C32.1169 0.666667 32.596 0.5625 33.1169 0.46875C33.6481 0.364583 34.1898 0.307292 34.7419 0.296875C35.294 0.276042 35.7992 0.375 36.2575 0.59375C36.7158 0.8125 37.0908 1.03125 37.3825 1.25C37.6742 1.46875 37.9033 1.70312 38.07 1.95312C38.2471 2.19271 38.3721 2.44792 38.445 2.71875C38.5179 2.98958 38.5596 3.28646 38.57 3.60938C38.5596 4.08854 38.445 4.55208 38.2262 5C38.1325 5.1875 38.0075 5.38542 37.8512 5.59375C37.7054 5.79167 37.5231 5.98438 37.3044 6.17188C37.0856 6.35938 36.8252 6.53646 36.5231 6.70312C36.2315 6.86979 35.8877 7.01562 35.4919 7.14062C35.8773 7.25521 36.195 7.39062 36.445 7.54688C36.7054 7.70312 36.9137 7.84896 37.07 7.98438C37.2575 8.15104 37.3981 8.3125 37.4919 8.46875C37.6065 8.6875 37.6846 8.875 37.7262 9.03125C37.7679 9.1875 37.794 9.33854 37.8044 9.48438C37.8252 9.61979 37.8512 9.76042 37.8825 9.90625C37.9137 10.0521 37.9815 10.2188 38.0856 10.4062C38.169 10.5521 38.2679 10.7031 38.3825 10.8594C38.4867 10.9948 38.6065 11.1406 38.7419 11.2969C38.8877 11.4531 39.0648 11.6042 39.2731 11.75C38.9815 11.7604 38.7106 11.7656 38.4606 11.7656C38.221 11.7656 38.0127 11.7656 37.8356 11.7656C37.6273 11.7656 37.4294 11.7604 37.2419 11.75C37.0544 11.7396 36.82 11.7344 36.5387 11.7344C36.2992 11.7344 35.9919 11.7344 35.6169 11.7344C35.2523 11.7344 34.8096 11.7396 34.2887 11.75C34.5179 11.5729 34.7054 11.3958 34.8512 11.2188C34.9971 11.0417 35.1117 10.8802 35.195 10.7344C35.2887 10.5677 35.3565 10.4062 35.3981 10.25C35.4502 9.96875 35.4554 9.67708 35.4137 9.375C35.3825 9.11458 35.2992 8.82812 35.1637 8.51562C35.0283 8.19271 34.8096 7.86979 34.5075 7.54688C34.2054 7.59896 33.9502 7.64062 33.7419 7.67188C33.544 7.69271 33.3721 7.71354 33.2262 7.73438C33.0596 7.75521 32.9242 7.77083 32.82 7.78125C32.7262 7.79167 32.6221 7.80208 32.5075 7.8125C32.4137 7.82292 32.3096 7.83854 32.195 7.85938C32.0908 7.86979 31.9919 7.88542 31.8981 7.90625C31.8773 8.35417 31.8773 8.74479 31.8981 9.07812C31.919 9.40104 31.945 9.67188 31.9762 9.89062C32.0179 10.151 32.0648 10.375 32.1169 10.5625C32.169 10.75 32.2419 10.9323 32.3356 11.1094C32.4085 11.2552 32.5023 11.4115 32.6169 11.5781C32.7315 11.7344 32.8617 11.8646 33.0075 11.9688C32.7367 11.9688 32.4762 11.9688 32.2262 11.9688C31.9867 11.9688 31.7679 11.9635 31.57 11.9531C31.3408 11.9531 31.1221 11.9479 30.9137 11.9375C30.7054 11.9271 30.471 11.9219 30.2106 11.9219C29.9919 11.9219 29.7315 11.9219 29.4294 11.9219C29.1377 11.9219 28.82 11.9271 28.4762 11.9375C28.7471 11.6562 28.9606 11.4167 29.1169 11.2188C29.2731 11.0208 29.3929 10.8542 29.4762 10.7188C29.57 10.5729 29.6273 10.4479 29.6481 10.3438C29.669 10.1771 29.6846 9.88021 29.695 9.45312C29.7158 9.01562 29.7315 8.51562 29.7419 7.95312C29.7523 7.39062 29.7575 6.80208 29.7575 6.1875C29.7575 5.57292 29.7523 5 29.7419 4.46875C29.7315 3.92708 29.721 3.46354 29.7106 3.07812C29.7002 2.69271 29.6898 2.44792 29.6794 2.34375C29.6481 2.15625 29.5804 1.96875 29.4762 1.78125C29.3929 1.61458 29.2731 1.42708 29.1169 1.21875C28.9606 1.01042 28.7471 0.802083 28.4762 0.59375ZM34.3825 6.09375C34.4867 6.03125 34.5752 5.96875 34.6481 5.90625C34.721 5.84375 34.7835 5.74479 34.8356 5.60938C34.8877 5.46354 34.9294 5.26042 34.9606 5C35.0023 4.73958 35.0492 4.38542 35.1012 3.9375C35.1429 3.48958 35.1117 3.11979 35.0075 2.82812C34.9137 2.53646 34.7835 2.30729 34.6169 2.14062C34.4606 1.96354 34.2835 1.84375 34.0856 1.78125C33.8981 1.70833 33.7315 1.67188 33.5856 1.67188C33.294 1.67188 33.0075 1.76042 32.7262 1.9375C32.445 2.11458 32.2315 2.35417 32.0856 2.65625C32.0335 2.79167 31.9867 3.01562 31.945 3.32812C31.9137 3.59896 31.8929 3.97396 31.8825 4.45312C31.8721 4.93229 31.8877 5.5625 31.9294 6.34375C32.3252 6.40625 32.6742 6.43229 32.9762 6.42188C33.2783 6.40104 33.5335 6.36458 33.7419 6.3125C33.9919 6.26042 34.2054 6.1875 34.3825 6.09375ZM42.8081 0.59375C43.506 0.677083 44.1102 0.739583 44.6206 0.78125C45.131 0.8125 45.5529 0.838542 45.8862 0.859375C46.2717 0.880208 46.5946 0.885417 46.855 0.875C47.1258 0.864583 47.4956 0.838542 47.9644 0.796875C48.3602 0.765625 48.881 0.723958 49.5269 0.671875C50.1727 0.609375 50.98 0.526042 51.9487 0.421875C51.9592 0.661458 51.9644 0.895833 51.9644 1.125C51.9748 1.34375 51.9852 1.53646 51.9956 1.70312C52.006 1.90104 52.0112 2.08333 52.0112 2.25C52.0112 2.42708 52.0008 2.65104 51.98 2.92188C51.9592 3.15104 51.9227 3.44271 51.8706 3.79688C51.829 4.14062 51.7612 4.55208 51.6675 5.03125C51.5217 4.46875 51.381 4.01562 51.2456 3.67188C51.1102 3.31771 50.9852 3.03646 50.8706 2.82812C50.7456 2.58854 50.6206 2.40625 50.4956 2.28125C50.3602 2.1875 50.1987 2.10938 50.0112 2.04688C49.8446 1.99479 49.631 1.95312 49.3706 1.92188C49.1206 1.89062 48.8237 1.89583 48.48 1.9375C48.4279 3.3125 48.3915 4.42708 48.3706 5.28125C48.3498 6.13542 48.3342 6.80208 48.3237 7.28125C48.3133 7.85417 48.3081 8.26562 48.3081 8.51562C48.3185 8.86979 48.3758 9.21875 48.48 9.5625C48.5633 9.85417 48.6987 10.1562 48.8862 10.4688C49.0737 10.7812 49.3446 11.0573 49.6987 11.2969H47.7925C47.6154 11.2969 47.3967 11.3073 47.1362 11.3281C46.9175 11.349 46.6362 11.3698 46.2925 11.3906C45.9592 11.4115 45.5685 11.4479 45.1206 11.5C45.2769 11.2292 45.4019 10.9844 45.4956 10.7656C45.5894 10.5469 45.6623 10.3594 45.7144 10.2031C45.7769 10.0156 45.8237 9.84896 45.855 9.70312C45.8654 9.49479 45.8915 9.07292 45.9331 8.4375C45.9435 8.17708 45.954 7.85417 45.9644 7.46875C45.9852 7.08333 46.006 6.625 46.0269 6.09375C46.0581 5.5625 46.0842 4.95312 46.105 4.26562C46.1362 3.56771 46.1675 2.78125 46.1987 1.90625C46.0112 1.85417 45.8342 1.85938 45.6675 1.92188C45.5008 1.97396 45.355 2.04167 45.23 2.125C45.0842 2.22917 44.9435 2.35417 44.8081 2.5C44.6727 2.67708 44.5217 2.90625 44.355 3.1875C44.2092 3.42708 44.0425 3.74479 43.855 4.14062C43.6675 4.52604 43.454 5.00521 43.2144 5.57812C43.1623 4.97396 43.1258 4.47917 43.105 4.09375C43.0842 3.69792 43.0685 3.39062 43.0581 3.17188C43.0477 2.91146 43.0425 2.71875 43.0425 2.59375C43.0425 2.47917 43.0321 2.32812 43.0112 2.14062C42.9904 1.98438 42.9644 1.78125 42.9331 1.53125C42.9019 1.27083 42.8602 0.958333 42.8081 0.59375ZM57.5931 1.42188C58.114 1.45312 58.5515 1.47917 58.9056 1.5C59.2702 1.51042 59.5723 1.52083 59.8119 1.53125C60.0827 1.54167 60.3119 1.54167 60.4994 1.53125C60.6869 1.52083 60.9421 1.49479 61.265 1.45312C61.5358 1.42188 61.8952 1.375 62.3431 1.3125C62.8015 1.23958 63.3692 1.14583 64.0462 1.03125C63.8067 1.27083 63.6192 1.48958 63.4837 1.6875C63.3587 1.875 63.2598 2.03646 63.1869 2.17188C63.1035 2.33854 63.0462 2.47917 63.015 2.59375C62.9942 2.69792 63.015 2.95833 63.0775 3.375C63.14 3.79167 63.2285 4.28646 63.3431 4.85938C63.4577 5.42188 63.5827 6.02604 63.7181 6.67188C63.8535 7.30729 63.989 7.90625 64.1244 8.46875C64.2598 9.02083 64.3796 9.49479 64.4837 9.89062C64.5983 10.276 64.6817 10.5052 64.7337 10.5781C64.89 10.7969 64.989 10.9427 65.0306 11.0156C65.0723 11.0781 65.1452 11.1354 65.2494 11.1875C65.291 11.2083 65.3587 11.2396 65.4525 11.2812C65.5358 11.3229 65.6452 11.375 65.7806 11.4375C65.9265 11.5 66.1087 11.5729 66.3275 11.6562C65.9212 11.6771 65.5723 11.6927 65.2806 11.7031C64.989 11.7031 64.7494 11.7083 64.5619 11.7188C64.3431 11.7292 64.1556 11.7396 63.9994 11.75C63.8431 11.75 63.6556 11.7604 63.4369 11.7812C63.2494 11.8021 63.0046 11.8229 62.7025 11.8438C62.4108 11.8646 62.0671 11.8854 61.6712 11.9062C61.8796 11.7604 62.0462 11.6302 62.1712 11.5156C62.3067 11.3906 62.4108 11.2865 62.4837 11.2031C62.5671 11.099 62.6244 11.0052 62.6556 10.9219C62.6765 10.8281 62.6921 10.6875 62.7025 10.5C62.7129 10.3333 62.7129 10.1146 62.7025 9.84375C62.6921 9.5625 62.666 9.19792 62.6244 8.75L58.515 9.17188C58.4108 9.34896 58.3327 9.50521 58.2806 9.64062C58.2285 9.76562 58.1921 9.875 58.1712 9.96875C58.14 10.0833 58.1296 10.1771 58.14 10.25C58.1608 10.3333 58.1973 10.4323 58.2494 10.5469C58.3015 10.651 58.3744 10.776 58.4681 10.9219C58.5723 11.0573 58.7233 11.2188 58.9212 11.4062C58.6608 11.3958 58.3952 11.3906 58.1244 11.3906C57.8535 11.3906 57.6035 11.3958 57.3744 11.4062C57.1035 11.4167 56.8379 11.4271 56.5775 11.4375C56.3171 11.4479 56.0202 11.4635 55.6869 11.4844C55.4056 11.5052 55.0775 11.5312 54.7025 11.5625C54.3171 11.5833 53.9056 11.6146 53.4681 11.6562C53.739 11.5312 53.9681 11.4062 54.1556 11.2812C54.3431 11.1458 54.4994 11.0208 54.6244 10.9062C54.7702 10.7812 54.8952 10.6615 54.9994 10.5469C55.0723 10.4427 55.2181 10.2031 55.4369 9.82812C55.6556 9.44271 55.9004 8.98958 56.1712 8.46875C56.4525 7.94792 56.7442 7.39062 57.0462 6.79688C57.3587 6.20312 57.64 5.64583 57.89 5.125C58.14 4.59375 58.3431 4.13542 58.4994 3.75C58.6556 3.36458 58.7337 3.11458 58.7337 3C58.7129 2.86458 58.6608 2.71354 58.5775 2.54688C58.5046 2.40104 58.39 2.23438 58.2337 2.04688C58.0879 1.85938 57.8744 1.65104 57.5931 1.42188ZM62.4369 7.59375C62.3744 7.22917 62.3171 6.91667 62.265 6.65625C62.2129 6.38542 62.1712 6.16146 62.14 5.98438C62.0983 5.77604 62.0671 5.59375 62.0462 5.4375C62.015 5.29167 61.9785 5.10417 61.9369 4.875C61.8952 4.67708 61.8431 4.43229 61.7806 4.14062C61.7285 3.83854 61.6608 3.47917 61.5775 3.0625C60.9837 4.25 60.5202 5.17188 60.1869 5.82812C59.864 6.47396 59.6296 6.94792 59.4837 7.25C59.3067 7.60417 59.2077 7.8125 59.1869 7.875L62.4369 7.59375ZM69.5969 0.921875C70.0656 1.00521 70.451 1.0625 70.7531 1.09375C71.0552 1.125 71.3 1.15104 71.4875 1.17188C71.7063 1.19271 71.8781 1.19792 72.0031 1.1875H72.4719C72.6385 1.1875 72.8469 1.1875 73.0969 1.1875C73.3573 1.17708 73.6802 1.17188 74.0656 1.17188C74.2844 1.68229 74.4823 2.15104 74.6594 2.57812C74.8469 3.00521 75.0031 3.36979 75.1281 3.67188C75.274 4.03646 75.4094 4.36458 75.5344 4.65625C75.6802 5.02083 75.8365 5.42188 76.0031 5.85938C76.1698 6.29688 76.3208 6.70833 76.4563 7.09375C76.6021 7.47917 76.7219 7.79688 76.8156 8.04688C76.9094 8.29688 76.9563 8.41146 76.9563 8.39062C76.9563 8.38021 76.9615 8.27604 76.9719 8.07812C76.9823 7.86979 76.9927 7.61458 77.0031 7.3125C77.0135 7 77.024 6.66146 77.0344 6.29688C77.0552 5.92188 77.0656 5.5625 77.0656 5.21875C77.076 4.86458 77.0813 4.54167 77.0813 4.25C77.0813 3.95833 77.0708 3.73958 77.05 3.59375C77.0188 3.41667 76.9563 3.21354 76.8625 2.98438C76.7792 2.78646 76.6646 2.55208 76.5188 2.28125C76.3729 2 76.1698 1.68229 75.9094 1.32812C76.3365 1.33854 76.6854 1.34375 76.9563 1.34375C77.2271 1.34375 77.4458 1.34375 77.6125 1.34375C77.8 1.34375 77.9458 1.33854 78.05 1.32812C78.1854 1.32812 78.3521 1.31771 78.55 1.29688C78.7271 1.27604 78.9458 1.26042 79.2063 1.25C79.4771 1.22917 79.8104 1.20312 80.2063 1.17188C79.9771 1.38021 79.7948 1.57812 79.6594 1.76562C79.524 1.95312 79.4146 2.11979 79.3313 2.26562C79.2375 2.43229 79.175 2.58854 79.1438 2.73438C79.1021 2.92188 79.0656 3.22917 79.0344 3.65625C79.0135 4.07292 78.9875 4.54167 78.9563 5.0625C78.9354 5.58333 78.9146 6.125 78.8938 6.6875C78.8729 7.25 78.8521 7.76562 78.8313 8.23438C78.8313 8.58854 78.8208 8.96875 78.8 9.375C78.7792 9.71875 78.7583 10.1094 78.7375 10.5469C78.7167 10.974 78.6906 11.4062 78.6594 11.8438L77.2688 11.875C76.8625 11.1562 76.5188 10.5417 76.2375 10.0312C75.9667 9.51042 75.7427 9.08333 75.5656 8.75C75.3677 8.36458 75.201 8.04167 75.0656 7.78125C74.951 7.53125 74.8 7.24479 74.6125 6.92188C74.4563 6.65104 74.2583 6.31771 74.0188 5.92188C73.7896 5.52604 73.5135 5.07292 73.1906 4.5625C73.1594 5.28125 73.1438 5.89583 73.1438 6.40625C73.1542 6.90625 73.1698 7.32292 73.1906 7.65625C73.2219 8.04167 73.2583 8.36458 73.3 8.625C73.3521 8.875 73.425 9.15625 73.5188 9.46875C73.6021 9.73958 73.701 10.0573 73.8156 10.4219C73.9406 10.7865 74.0917 11.1979 74.2688 11.6562C73.6542 11.625 73.1958 11.6094 72.8938 11.6094H72.425C72.2792 11.6094 72.0813 11.625 71.8313 11.6562C71.6229 11.6771 71.3365 11.7083 70.9719 11.75C70.6177 11.7917 70.175 11.849 69.6438 11.9219C69.8938 11.6198 70.0917 11.3438 70.2375 11.0938C70.3938 10.8333 70.5135 10.6146 70.5969 10.4375C70.701 10.2292 70.774 10.0469 70.8156 9.89062C70.8469 9.72396 70.8677 9.4375 70.8781 9.03125C70.8885 8.61458 70.8885 8.14583 70.8781 7.625C70.8781 7.09375 70.8677 6.53646 70.8469 5.95312C70.8365 5.36979 70.8208 4.82812 70.8 4.32812C70.7792 3.82812 70.7531 3.40104 70.7219 3.04688C70.701 2.69271 70.6854 2.47396 70.675 2.39062C70.6438 2.25521 70.5813 2.10938 70.4875 1.95312C70.4042 1.81771 70.2948 1.66667 70.1594 1.5C70.024 1.32292 69.8365 1.13021 69.5969 0.921875Z" fill="black"/>
</svg>
